<svg height="270" viewBox="0 0 670 270" width="670" xmlns="http://www.w3.org/2000/svg"><g fill="none" fill-rule="evenodd"><path d="m0 0h670v270h-670z" fill="#fff"/><g fill="#e32928"><g transform="matrix(.9945219 -.10452846 .10452846 .9945219 8.788358 33.069133)"><path d="m40.024 100.67c-7.1232774 11.305081-10.8957847 24.397901-10.88 37.76 0 39.299 32.032 71.295 71.463 71.295 39.392 0 71.465-31.957 71.465-71.295 0-15.23-4.81-29.356-12.998-40.947 5.331497-.9878982 10.641366-2.0891475 15.926-3.303 8.040166 13.372653 12.279709 28.685417 12.262 44.289.039 47.661-38.841 86.45-86.655 86.45-47.774 0-86.654-38.789-86.654-86.45 0-14.522 3.61-28.22 9.98-40.249 5.35.932 10.715 1.75 16.091 2.45z"/><path d="m199.815 150.325c0 7.263-5.903 13.192-13.222 13.192-7.28 0-13.223-5.89-13.223-13.192v-10.05c0-7.302 5.903-13.191 13.223-13.191 7.28 0 13.222 5.889 13.222 13.19zm-172.639 0c0 7.263-5.903 13.192-13.223 13.192-7.28 0-13.222-5.89-13.222-13.192v-10.05c0-7.302 5.903-13.191 13.222-13.191 7.32 0 13.223 5.889 13.223 13.19z"/><path d="m12.26 129.91c.0021441.459295-.1794992.90037-.5044612 1.224956-.3249621.324586-.7662464.505719-1.2255388.503044-.95206632-.007048-1.72275069-.775953-1.732-1.728v-46.405c0-.942.787-1.727 1.731-1.727.945 0 1.732.785 1.732 1.727v46.405z"/><path d="m14.937 81.62c.0008027 1.1684021-.4636728 2.2890341-1.2907958 3.1142806-.8271229.8252466-1.9488069 1.2871757-3.1172042 1.2837194-1.16805089.0031894-2.28932546-.4587203-3.11620285-1.2837214s-1.29133304-1.9452235-1.29079715-3.1132786c-.00053589-1.1680551.46391976-2.2882775 1.29079715-3.1132786s1.94815196-1.2869108 3.11620285-1.2837214c1.1682239-.0034556 2.2897559.4583364 3.1168499 1.2833664.827094.8250301 1.2916868 1.9454047 1.2911501 3.1136336zm143.086-7.733c.275-6.831.747-23.085.078-36.12-.905-16.999.512-39.416-61.075-37.531-61.665 1.452-59.029 23.79-58.99 40.79.04 13.035 1.418 29.249 2.047 36.04 39.2822808 4.1268778 78.937177 3.0576683 117.94-3.18zm22.903 11.66c.944 3.73-1.456 7.616-5.43 8.52-49.796589 11.50888-101.3960481 12.910536-151.744 4.122-4.014-.707-6.65-4.398-5.903-8.206.748-3.808 4.486-6.242 8.303-5.575 48.483 8.48 98.185 7.106 146.156-3.965 3.817-.903 7.673 1.335 8.618 5.104zm-48.089 66.192c-11.884 0-21.526-9.658-21.526-21.515 0-11.856 9.68-21.475 21.526-21.475 11.845 0 21.526 9.658 21.526 21.475.04 11.857-9.641 21.515-21.526 21.515zm0-35.687c-7.831 0-14.246 6.36-14.246 14.212s6.376 14.212 14.246 14.212 14.246-6.36 14.246-14.212-6.375-14.212-14.246-14.212zm23.572 8.794h7.32v69.372h-7.32z"/></g><path d="m294 196c-5.000025 0-9.433314-1.016657-13.3-3.05-3.866686-2.033344-6.84999-4.916648-8.95-8.65s-3.15-8.033309-3.15-12.9v-22.8c0-4.800024 1.066656-9.049982 3.2-12.75 2.133344-3.700019 5.116648-6.566656 8.95-8.6s8.249975-3.05 13.25-3.05c5.066692 0 9.516647 1.016656 13.35 3.05s6.816656 4.899981 8.95 8.6c2.133344 3.700018 3.2 7.949976 3.2 12.75v22.8c0 4.866691-1.066656 9.166648-3.2 12.9s-5.116647 6.616656-8.95 8.65c-3.833353 2.033343-8.283308 3.05-13.35 3.05zm0-10c4.200021 0 7.566654-1.299987 10.1-3.9s3.8-6.033312 3.8-10.3v-23.3c0-4.333355-1.266654-7.799987-3.8-10.4s-5.899979-3.9-10.1-3.9c-4.133354 0-7.466654 1.299987-10 3.9s-3.8 6.066645-3.8 10.4v23.3c0 4.266688 1.266654 7.699987 3.8 10.3s5.866646 3.9 10 3.9zm61.8-42.9c5.466694 0 9.81665 1.599984 13.05 4.8 3.233349 3.200016 4.85 7.566639 4.85 13.1v32.4c0 1.066672-.533328 1.6-1.6 1.6h-8.4c-1.066672 0-1.6-.533328-1.6-1.6v-30c0-3.066682-.883324-5.549991-2.65-7.45-1.766675-1.90001-4.083319-2.85-6.95-2.85s-5.183325.933324-6.95 2.8c-1.766676 1.866676-2.65 4.333318-2.65 7.4v30.1c0 1.066672-.533328 1.6-1.6 1.6h-8.4c-1.066672 0-1.6-.533328-1.6-1.6v-66.8c0-1.066672.533328-1.6 1.6-1.6h8.4c1.066672 0 1.6.533328 1.6 1.6v21.6c0 .266668.066666.433333.2.5s.266666.000001.4-.2c2.800014-3.600018 6.899973-5.4 12.3-5.4zm52.6 51.9c-1.066672 0-1.6-.533328-1.6-1.6v-66.8c0-1.066672.533328-1.6 1.6-1.6h24c4.733357 0 8.899982.833325 12.5 2.5s6.383323 4.049984 8.35 7.15c1.966676 3.100016 2.95 6.716646 2.95 10.85v29c0 4.133354-.983324 7.749985-2.95 10.85-1.966677 3.100016-4.749982 5.483325-8.35 7.15s-7.766643 2.5-12.5 2.5zm10-10.6c0 .400002.199998.6.6.6h13.9c3.533351 0 6.349989-1.116656 8.45-3.35 2.10001-2.233345 3.183333-5.216648 3.25-8.95v-25.3c0-3.800019-1.066656-6.816656-3.2-9.05s-4.999982-3.35-8.6-3.35h-13.8c-.400002 0-.6.199998-.6.6zm72 1.6c2.466679-.066667 4.616658-.583328 6.45-1.55 1.833343-.966672 3.316661-2.283325 4.45-3.95.333335-.533336.766664-.8 1.3-.8.333335 0 .633332.099999.9.3l4.8 3.8c.466669.466669.7.899998.7 1.3 0 .266668-.099999.566665-.3.9-1.933343 3.066682-4.56665 5.466658-7.9 7.2s-7.166645 2.6-11.5 2.6c-5.266693 0-9.683315-1.249987-13.25-3.75-3.566684-2.500013-6.149992-5.983311-7.75-10.45-1.33334-3.666685-2-7.799977-2-12.4s.366663-8.133321 1.1-10.6c1.266673-4.733357 3.766648-8.499986 7.5-11.3s8.26664-4.2 13.6-4.2c12.466729 0 19.766656 6.833265 21.9 20.5.333335 2.200011.566666 4.933317.7 8.2 0 1.066672-.533328 1.6-1.6 1.6h-31c-.400002 0-.6.199998-.6.6 0 1.800009.199998 3.266661.6 4.4.733337 2.400012 2.133323 4.26666 4.2 5.6s4.633318 2 7.7 2zm-2-32.9c-2.533346 0-4.616658.61666-6.25 1.85-1.633341 1.233339-2.749997 2.949989-3.35 5.15-.466669 1.33334-.733333 2.733326-.8 4.2-.066667.400002.099998.6.5.6h20.1c.400002 0 .6-.199998.6-.6-.266668-2.00001-.466666-3.199998-.6-3.6-.600003-2.333345-1.783324-4.183327-3.55-5.55-1.766676-1.366674-3.98332-2.05-6.65-2.05zm52.8-10c4.200021 0 7.91665.733326 11.15 2.2 3.233349 1.466674 5.716658 3.483321 7.45 6.05s2.6 5.483317 2.6 8.75v33.3c0 1.066672-.533328 1.6-1.6 1.6h-8.4c-1.066672 0-1.6-.533328-1.6-1.6v-2.5c0-.266668-.066666-.416666-.2-.45s-.299999.016666-.5.15c-3.600018 3.466684-8.39997 5.2-14.4 5.2-4.933358 0-8.983318-1.266654-12.15-3.8-3.166683-2.533346-4.75-6.299975-4.75-11.3 0-5.200026 1.816648-9.249985 5.45-12.15 3.633352-2.900014 8.749967-4.35 15.35-4.35h10.6c.400002 0 .6-.199998.6-.6v-2.3c0-2.600013-.783325-4.61666-2.35-6.05s-3.883318-2.15-6.95-2.15c-2.333345 0-4.266659.416662-5.8 1.25-1.533341.833337-2.566664 1.983326-3.1 3.45-.266668.933338-.866662 1.366667-1.8 1.3l-9-1.1c-.533336-.066667-.933332-.216666-1.2-.45-.266668-.233335-.366667-.516665-.3-.85.600003-4.00002 2.816647-7.266654 6.65-9.8 3.833352-2.533346 8.583305-3.8 14.25-3.8zm-2.3 43.5c3.266683 0 6.066655-.866658 8.4-2.6s3.5-3.93332 3.5-6.6v-4.6c0-.400002-.199998-.6-.6-.6h-8.3c-3.533351 0-6.333323.66666-8.4 2s-3.1 3.233321-3.1 5.7c0 2.133344.799992 3.783328 2.4 4.95s3.633321 1.75 6.1 1.75zm58.8-43.3c1.933343 0 3.699992.366663 5.3 1.1.800004.400002 1.100001 1.066662.9 2l-1.6 8.3c-.066667.533336-.249998.866666-.55 1s-.749997.133334-1.35 0c-.800004-.266668-1.86666-.4-3.2-.4-.800004 0-1.433331.033333-1.9.1-2.800014.133334-5.133324 1.116658-7 2.95-1.866676 1.833343-2.8 4.216652-2.8 7.15v27.9c0 1.066672-.533328 1.6-1.6 1.6h-8.4c-1.066672 0-1.6-.533328-1.6-1.6v-47.9c0-1.066672.533328-1.6 1.6-1.6h8.4c1.066672 0 1.6.533328 1.6 1.6v3.9c0 .266668.066666.433333.2.5s.266666-.033332.4-.3c2.800014-4.200021 6.666642-6.3 11.6-6.3zm21.4 28.1c-1.066672 0-1.6-.533328-1.6-1.6l-1.1-43.2c0-1.066672.533328-1.6 1.6-1.6h8.4c1.066672 0 1.6.533328 1.6 1.6l-1.1 43.2c0 1.066672-.533328 1.6-1.6 1.6zm2.8 23.4c-2.266678 0-4.166659-.749993-5.7-2.25s-2.3-3.316656-2.3-5.45.816658-3.949992 2.45-5.45 3.483323-2.25 5.55-2.25c2.133344 0 4.033325.749992 5.7 2.25s2.5 3.316656 2.5 5.45-.783325 3.949993-2.35 5.45c-1.566674 1.500007-3.516655 2.25-5.85 2.25z" fill-rule="nonzero"/></g></g></svg>