<svg height="1057pt" preserveAspectRatio="xMidYMid meet" viewBox="0 0 1057 1057" width="1057pt" xmlns="http://www.w3.org/2000/svg"><g transform="matrix(.1 0 0 -.1 0 1057)"><path d="m5487 10564c-1-1-101-5-222-8-208-6-252-8-420-21-72-5-227-24-345-41-29-5-253-50-285-58-211-52-442-158-570-259-159-126-259-292-300-502-27-136-27-717 0-1069l4-56-42-1c-108-4-142-17-245-92-59-43-225-186-234-202-7-11-90-240-229-629-22-60-37-111-34-114 4-5 27-8 70-11 13-1 21-9 22-22 5-57 99-152 166-166 15-3 27-7 27-10 0-2-21-47-46-101-57-121-76-167-126-312-40-118-101-355-114-445-9-65-13-87-16-90-4-4-49-8-65-6-8 1-11 174-11 682v682l38 36c109 104 14 285-131 248-68-17-109-70-109-142 0-33 27-105 40-105 3 0 15-8 26-18 19-18 19-38 19-717 0-673-1-698-19-709-118-69-193-156-226-264-19-60-21-92-21-293 0-140 5-245 12-275 54-224 277-368 508-329l36 6 23-73c76-237 210-507 364-733 26-38 44-73 40-76-4-4-25-12-47-19-61-19-191-86-275-142-125-85-209-156-345-292-469-471-803-1119-782-1521 3-55 7-107 9-115 35-130 102-218 206-267 215-101 526 11 867 313 125 110 302 300 382 409l22 30-5-40c-2-22-6-58-9-80-2-22-7-67-10-100-4-33-10-87-14-119-23-169 26-408 123-598 164-322 475-549 800-585 54-6 60-9 85-45 75-112 169-223 257-306 54-51 100-93 101-93 4 1 157-97 171-109 6-6 12-8 12-5s21-6 47-20c27-14 53-25 59-25s19-10 28-22c10-15 14-17 10-6-6 17-4 17 22 3 16-8 35-15 42-15 6 0 12-5 12-11 0-5 4-8 9-5 4 3 23 1 42-5s43-12 54-14c11-3 43-9 70-15 58-12 170-23 237-23 32 0 45-4 41-11-4-6 1-5 10 2 10 9 34 12 67 10 28-3 53-1 56 3 2 4 24 7 48 6s42 2 39 7 8 7 26 4c17-2 31 0 31 5s7 7 15 4c8-4 17-2 20 3 5 8 82 26 98 22 4-1 7 2 7 6 0 8 83 36 96 32 4-1 10 2 13 7 11 17 81 44 94 37 6-4 9-3 4 1-4 5 5 17 20 27 33 21 47 23 37 6-3-7 5 0 18 16 17 20 30 27 42 23 9-4 14-3 11 2-7 12 35 42 48 34 6-3 7-1 3 5-10 17 13 25 32 10 15-11 16-11 4 3-10 14-5 22 35 55 83 67 189 182 252 272 83 120 80 118 147 126 161 19 331 90 475 199 228 171 381 429 435 732 15 83 9 279-11 415-2 14-6 50-10 80-12 110-17 146-21 172l-4 28 46-19c41-16 49-24 65-67 27-72 97-147 168-179 53-25 60-32 80-80 42-101 123-170 234-199 48-13 122-13 153-2 7 3 25-12 41-32 38-47 108-82 162-82 168 0 267 190 171 328l-30 43 39 47c56 67 83 140 83 222 0 32 6 39 60 75 83 56 166 148 202 225 27 57 31 76 30 150 0 71-4 95-27 144-87 189-314 348-731 511-146 57-412 146-573 190l-62 17 37 47c20 25 45 55 55 66 11 11 51 64 90 119 152 212 275 444 362 681 26 72 51 140 56 153 7 18 14 22 30 17 12-4 48-7 81-6 193 2 365 140 413 329 24 94 17 514-9 587-37 99-107 183-198 234-53 30-171 66-186 57s-31 10-37 44c-3 19-8 47-11 62s-7 40-9 56c-13 99-132 501-156 527-5 5-9 15-9 22 0 17-116 256-159 330l-31 52 41 11c84 23 163 132 161 221-2 92-66 183-150 213-68 25-72 28-96 68-11 19-37 61-56 93-19 31-40 64-45 73-6 10-28 44-49 77s-70 110-110 172l-71 111-83 18c-46 10-86 22-87 28-2 6-6 187-9 401-7 540-15 670-52 838-78 358-328 582-779 698-92 24-83 22-195 42-109 19-149 25-235 33-38 3-81 8-95 10s-104 7-200 10-194 7-218 7c-24 1-44 1-45 1zm1904-3330c103-163 180-324 243-504 31-90 82-287 90-350 3-25 8-56 11-69 26-136 27-486 1-671-17-128-58-295-103-429-32-95-126-315-142-333-3-4-6 274-6 618 0 548-2 625-15 628-8 2-63 4-122 4l-108-1v-818-819l-42-48c-279-313-588-533-938-670-165-64-365-119-500-137-25-3-56-8-70-10-122-21-472-21-587-1-10 2-39 6-64 10-350 51-728 206-1023 419-332 241-598 564-768 933-106 229-183 513-205 749-15 172-7 491 17 600 5 22 11 58 15 80 32 215 165 562 295 774l21 33 67-7c37-4 74-8 82-10 8-1 42-6 75-9 33-4 78-9 100-11 22-3 65-7 95-10 30-2 78-7 105-9 186-18 447-34 670-42 128-4 760-4 885 0 107 4 326 16 410 21 136 10 331 26 350 30 8 1 56 6 105 10 50 4 92 8 95 10 3 1 37 6 75 9 39 4 81 9 95 11s63 9 110 15c120 16 148 20 210 30 30 5 73 12 95 15s96 16 165 28c69 13 132 23 140 22s40-42 71-91zm-4013-3303c165-157 271-243 431-351 388-259 854-424 1321-467 155-15 536-8 636 11 10 2 42 7 69 10 72 10 260 51 330 72 33 10 62 19 65 19 178 47 486 188 689 315 63 39 115 69 116 68 2-3 65-79 254-306 35-43 41-55 31-67-7-8-20-39-29-70l-17-55-99 120c-55 66-101 120-103 120-4 0 5-105 13-152 2-13 7-50 10-83s8-73 10-90c2-16 7-56 10-89 4-32 8-68 10-80 2-11 6-52 10-91 3-38 8-77 10-85s6-46 10-83c3-37 8-77 10-88s7-50 10-87 9-75 11-85c8-25 7-169 0-203-4-16-8-40-11-53-22-114-80-244-155-346-38-51-172-173-224-204-73-44-195-87-271-97-75-9-2422-9-2490 0-331 46-617 343-663 691-11 85-4 287 13 355 2 8 7 49 10 90 4 41 8 82 10 90s6 49 10 90 9 82 10 91c2 8 6 48 10 88 3 40 8 82 10 93 3 12 7 58 11 104 6 77 5 88-20 138-32 66-80 100-145 102-69 3-110-25-148-101-83-165-269-434-406-590-284-320-607-533-760-499-44 9-61 54-60 154 3 263 197 676 493 1051 106 133 319 346 435 432 112 84 270 165 345 175 99 13 123 6 188-57zm4447-293c394-130 698-287 772-399 25-38 25-39 8-66-21-31-64-69-112-99-53-33-87-16-122 61-36 79-92 137-168 175-35 17-63 35-63 40 0 43-76 148-137 189-96 65-247 74-340 21l-32-19-81 97c-44 53-80 99-80 103 0 8 171-42 355-103z"/><path d="m6327 6944c-220-47-392-174-495-366-32-58-69-167-78-228-6-43-6-176 1-210 17-89 32-136 73-219 37-78 60-109 126-175 91-91 163-137 274-177 328-115 686 22 859 329 100 178 116 394 44 592-85 231-291 408-531 455-71 14-206 13-273-1zm276-255c109-37 183-92 248-185 75-109 99-264 61-391-46-149-143-254-290-310-56-21-83-26-162-25-137 0-238 42-332 138-182 184-178 481 8 661 126 123 307 166 467 112z"/><path d="m7263 6422c-22-3-23-7-23-120v-117h122 123v113c0 63-2 117-5 120-5 7-175 10-217 4z"/><path d="m4275 691c-3-5-2-12 3-15s9 1 9 9c0 17-3 19-12 6z"/><path d="m4375 670c3-5 8-10 11-10 2 0 4 5 4 10 0 6-5 10-11 10-5 0-7-4-4-10z"/><path d="m4119 643c-13-16-12-17 4-4s21 21 13 21c-2 0-10-8-17-17z"/><path d="m4170 629c0-5 5-7 10-4 6 3 10 8 10 11 0 2-4 4-10 4-5 0-10-5-10-11z"/><path d="m6630 626c0-2 8-10 18-17 15-13 16-12 3 4s-21 21-21 13z"/><path d="m3630 616c0-2 7-7 16-10 8-3 12-2 9 4-6 10-25 14-25 6z"/><path d="m3827 609c7-7 15-10 18-7s-2 9-12 12c-14 6-15 5-6-5z"/><path d="m6747 609c7-7 15-10 18-7s-2 9-12 12c-14 6-15 5-6-5z"/><path d="m4450 590c0-5 5-10 11-10 5 0 7 5 4 10-3 6-8 10-11 10-2 0-4-4-4-10z"/><path d="m6745 570c-3-6 1-7 9-4 18 7 21 14 7 14-6 0-13-4-16-10z"/><path d="m3455 550c3-5 8-10 11-10 2 0 4 5 4 10 0 6-5 10-11 10-5 0-7-4-4-10z"/><path d="m4570 550c0-5 5-10 11-10 5 0 7 5 4 10-3 6-8 10-11 10-2 0-4-4-4-10z"/><path d="m4640 550c-12-7-10-9 7-7 12 0 19 5 17 9-6 10-6 10-24-2z"/><path d="m6055 550c3-5 8-10 11-10 2 0 4 5 4 10 0 6-5 10-11 10-5 0-7-4-4-10z"/><path d="m6330 549c0-5 5-7 10-4 6 3 10 8 10 11 0 2-4 4-10 4-5 0-10-5-10-11z"/><path d="m6695 550c-3-5-1-10 4-10 6 0 11 5 11 10 0 6-2 10-4 10-3 0-8-4-11-10z"/><path d="m3400 530c-9-6-10-10-3-10 6 0 15 5 18 10 8 12 4 12-15 0z"/><path d="m4464 532c4-3 14-7 22-8 9-1 13 0 10 4-4 3-14 7-22 8-9 1-13 0-10-4z"/><path d="m5913 525c0-8 4-12 9-9s6 10 3 15c-9 13-12 11-12-6z"/><path d="m7026 532c-3-5 1-9 9-9s12 4 9 9c-3 4-7 8-9 8s-6-4-9-8z"/><path d="m3975 510c-3-5-1-10 4-10 6 0 11 5 11 10 0 6-2 10-4 10-3 0-8-4-11-10z"/><path d="m4095 510c3-5 8-10 11-10 2 0 4 5 4 10 0 6-5 10-11 10-5 0-7-4-4-10z"/><path d="m3719 508c-5-18-6-38-1-34 7 8 12 36 6 36-2 0-4-1-5-2z"/><path d="m7069 493c-13-16-12-17 4-4 9 7 17 15 17 17 0 8-8 3-21-13z"/><path d="m3319 483c-13-16-12-17 4-4s21 21 13 21c-2 0-10-8-17-17z"/><path d="m3385 490c-3-6 1-7 9-4 18 7 21 14 7 14-6 0-13-4-16-10z"/><path d="m3676 492c-3-5 1-9 9-9s12 4 9 9c-3 4-7 8-9 8s-6-4-9-8z"/><path d="m6076 492c-3-5 1-9 9-9s12 4 9 9c-3 4-7 8-9 8s-6-4-9-8z"/><path d="m6113 485c0-8 4-12 9-9 4 3 8 9 8 15 0 5-4 9-8 9-5 0-9-7-9-15z"/><path d="m6599 483c-13-16-12-17 4-4 9 7 17 15 17 17 0 8-8 3-21-13z"/><path d="m7159 483c-13-16-12-17 4-4s21 21 13 21c-2 0-10-8-17-17z"/><path d="m3175 470c-3-5-1-10 4-10 6 0 11 5 11 10 0 6-2 10-4 10-3 0-8-4-11-10z"/><path d="m3570 469c0-5 5-7 10-4 6 3 10 8 10 11 0 2-4 4-10 4-5 0-10-5-10-11z"/><path d="m5890 469c0-5 5-7 10-4 6 3 10 8 10 11 0 2-4 4-10 4-5 0-10-5-10-11z"/><path d="m6455 470c3-5 8-10 11-10 2 0 4 5 4 10 0 6-5 10-11 10-5 0-7-4-4-10z"/><path d="m6695 470c-3-5-1-10 4-10 6 0 11 5 11 10 0 6-2 10-4 10-3 0-8-4-11-10z"/><path d="m7199 463c-12-16-12-17 2-6 9 7 20 9 24 5 5-4 5-1 1 6-9 16-11 15-27-5z"/><path d="m3500 456c0-2 8-10 18-17 15-13 16-12 3 4s-21 21-21 13z"/><path d="m3970 430c0-5 5-10 11-10 5 0 7 5 4 10-3 6-8 10-11 10-2 0-4-4-4-10z"/><path d="m4170 429c0-5 5-7 10-4 6 3 10 8 10 11 0 2-4 4-10 4-5 0-10-5-10-11z"/><path d="m5610 430c0-5 5-10 11-10 5 0 7 5 4 10-3 6-8 10-11 10-2 0-4-4-4-10z"/><path d="m6850 430c0-5 5-10 11-10 5 0 7 5 4 10-3 6-8 10-11 10-2 0-4-4-4-10z"/><path d="m3630 426c0-2 8-10 18-17 15-13 16-12 3 4s-21 21-21 13z"/><path d="m4349 413c-13-16-12-17 4-4s21 21 13 21c-2 0-10-8-17-17z"/><path d="m4590 426c0-2 8-10 18-17 15-13 16-12 3 4s-21 21-21 13z"/><path d="m5789 413c-13-16-12-17 4-4 9 7 17 15 17 17 0 8-8 3-21-13z"/><path d="m6510 426c0-2 8-10 18-17 15-13 16-12 3 4s-21 21-21 13z"/><path d="m5440 410c-9-6-10-10-3-10 6 0 15 5 18 10 8 12 4 12-15 0z"/><path d="m6039 403c-13-16-12-17 4-4 9 7 17 15 17 17 0 8-8 3-21-13z"/><path d="m4650 389c0-5 5-7 10-4 6 3 10 8 10 11 0 2-4 4-10 4-5 0-10-5-10-11z"/><path d="m5130 389c0-5 5-7 10-4 6 3 10 8 10 11 0 2-4 4-10 4-5 0-10-5-10-11z"/><path d="m6130 389c0-5 5-7 10-4 6 3 10 8 10 11 0 2-4 4-10 4-5 0-10-5-10-11z"/><path d="m6250 390c0-5 5-10 11-10 5 0 7 5 4 10-3 6-8 10-11 10-2 0-4-4-4-10z"/><path d="m6935 390c3-5 8-10 11-10 2 0 4 5 4 10 0 6-5 10-11 10-5 0-7-4-4-10z"/><path d="m4469 373c-13-16-12-17 4-4s21 21 13 21c-2 0-10-8-17-17z"/><path d="m4955 379c-4-6-5-12-2-15 2-3 7 2 10 11 7 17 1 20-8 4z"/><path d="m5909 373c-13-16-12-17 4-4 9 7 17 15 17 17 0 8-8 3-21-13z"/><path d="m3110 370c0-5 5-10 11-10 5 0 7 5 4 10-3 6-8 10-11 10-2 0-4-4-4-10z"/><path d="m3759 363c-13-16-12-17 4-4s21 21 13 21c-2 0-10-8-17-17z"/><path d="m3984 372c4-3 14-7 22-8 9-1 13 0 10 4-4 3-14 7-22 8-9 1-13 0-10-4z"/><path d="m4220 376c0-2 8-10 18-17 15-13 16-12 3 4s-21 21-21 13z"/><path d="m4719 363c-13-16-12-17 4-4s21 21 13 21c-2 0-10-8-17-17z"/><path d="m5199 363c-13-16-12-17 4-4 9 7 17 15 17 17 0 8-8 3-21-13z"/><path d="m5426 372c-2-4 4-8 14-8s16 4 14 8c-3 4-9 8-14 8s-11-4-14-8z"/><path d="m5660 376c0-2 8-10 18-17 15-13 16-12 3 4s-21 21-21 13z"/><path d="m6639 363c-13-16-12-17 4-4 9 7 17 15 17 17 0 8-8 3-21-13z"/><path d="m6860 376c0-2 8-10 18-17 15-13 16-12 3 4s-21 21-21 13z"/><path d="m3295 350c3-5 8-10 11-10 2 0 4 5 4 10 0 6-5 10-11 10-5 0-7-4-4-10z"/><path d="m7135 350c-3-5-1-10 4-10 6 0 11 5 11 10 0 6-2 10-4 10-3 0-8-4-11-10z"/><path d="m3989 333c-13-16-12-17 4-4s21 21 13 21c-2 0-10-8-17-17z"/><path d="m6070 330c0-5 5-10 11-10 5 0 7 5 4 10-3 6-8 10-11 10-2 0-4-4-4-10z"/><path d="m3250 309c0-5 5-7 10-4 6 3 10 8 10 11 0 2-4 4-10 4-5 0-10-5-10-11z"/><path d="m4175 310c-3-5-1-10 4-10 6 0 11 5 11 10 0 6-2 10-4 10-3 0-8-4-11-10z"/><path d="m4490 310c0-5 5-10 11-10 5 0 7 5 4 10-3 6-8 10-11 10-2 0-4-4-4-10z"/><path d="m4850 309c0-5 5-7 10-4 6 3 10 8 10 11 0 2-4 4-10 4-5 0-10-5-10-11z"/><path d="m6490 309c0-5 5-7 10-4 6 3 10 8 10 11 0 2-4 4-10 4-5 0-10-5-10-11z"/><path d="m6610 309c0-5 5-7 10-4 6 3 10 8 10 11 0 2-4 4-10 4-5 0-10-5-10-11z"/><path d="m3155 299c-4-6-5-12-2-15 2-3 7 2 10 11 7 17 1 20-8 4z"/><path d="m5830 306c0-2 8-10 18-17 15-13 16-12 3 4s-21 21-21 13z"/><path d="m6950 306c0-2 8-10 18-17 15-13 16-12 3 4s-21 21-21 13z"/><path d="m3660 296c0-2 8-10 18-17 15-13 16-12 3 4s-21 21-21 13z"/><path d="m6070 292c0-5 7-9 15-9s12 4 9 9c-3 4-9 8-15 8-5 0-9-4-9-8z"/><path d="m7026 292c-2-4 4-8 14-8s16 4 14 8c-3 4-9 8-14 8s-11-4-14-8z"/><path d="m3890 269c0-5 5-7 10-4 6 3 10 8 10 11 0 2-4 4-10 4-5 0-10-5-10-11z"/><path d="m5050 270c0-5 5-10 11-10 5 0 7 5 4 10-3 6-8 10-11 10-2 0-4-4-4-10z"/><path d="m5770 270c0-5 5-10 11-10 5 0 7 5 4 10-3 6-8 10-11 10-2 0-4-4-4-10z"/><path d="m6895 270c3-5 8-10 11-10 2 0 4 5 4 10 0 6-5 10-11 10-5 0-7-4-4-10z"/><path d="m3310 266c0-2 8-10 18-17 15-13 16-12 3 4s-21 21-21 13z"/><path d="m3790 266c0-2 8-10 18-17 15-13 16-12 3 4s-21 21-21 13z"/><path d="m5230 266c0-2 8-10 18-17 15-13 16-12 3 4s-21 21-21 13z"/><path d="m6429 253c-13-16-12-17 4-4 9 7 17 15 17 17 0 8-8 3-21-13z"/><path d="m6670 266c0-2 8-10 18-17 15-13 16-12 3 4s-21 21-21 13z"/><path d="m3540 256c0-2 8-10 18-17 15-13 16-12 3 4s-21 21-21 13z"/><path d="m4270 256c0-2 7-7 16-10 8-3 12-2 9 4-6 10-25 14-25 6z"/><path d="m5719 243c-13-16-12-17 4-4 9 7 17 15 17 17 0 8-8 3-21-13z"/><path d="m4095 230c3-5 8-10 11-10 2 0 4 5 4 10 0 6-5 10-11 10-5 0-7-4-4-10z"/><path d="m7090 229c0-5 5-7 10-4 6 3 10 8 10 11 0 2-4 4-10 4-5 0-10-5-10-11z"/><path d="m5104 212c4-3 14-7 22-8 9-1 13 0 10 4-4 3-14 7-22 8-9 1-13 0-10-4z"/><path d="m5370 189c0-5 5-7 10-4 6 3 10 8 10 11 0 2-4 4-10 4-5 0-10-5-10-11z"/><path d="m5450 190c0-5 5-10 11-10 5 0 7 5 4 10-3 6-8 10-11 10-2 0-4-4-4-10z"/><path d="m6996 192c-3-5 1-9 9-9s12 4 9 9c-3 4-7 8-9 8s-6-4-9-8z"/><path d="m3874 176c1-8 5-18 8-22 4-3 5 1 4 10-1 8-5 18-8 22-4 3-5-1-4-10z"/><path d="m4839 188c-5-18-6-38-1-34 7 8 12 36 6 36-2 0-4-1-5-2z"/><path d="m5319 188c-5-18-6-38-1-34 7 8 12 36 6 36-2 0-4-1-5-2z"/><path d="m6754 170c0-13 4-16 10-10 7 7 7 13 0 20-6 6-10 3-10-10z"/><path d="m3835 170c3-5 8-10 11-10 2 0 4 5 4 10 0 6-5 10-11 10-5 0-7-4-4-10z"/><path d="m4796 172c-3-5 1-9 9-9s12 4 9 9c-3 4-7 8-9 8s-6-4-9-8z"/><path d="m5276 172c-3-5 1-9 9-9s12 4 9 9c-3 4-7 8-9 8s-6-4-9-8z"/><path d="m6793 165c0-8 4-12 9-9s6 10 3 15c-9 13-12 11-12-6z"/><path d="m3930 150c0-5 5-10 11-10 5 0 7 5 4 10-3 6-8 10-11 10-2 0-4-4-4-10z"/><path d="m4370 150c0-5 5-10 11-10 5 0 7 5 4 10-3 6-8 10-11 10-2 0-4-4-4-10z"/><path d="m6215 150c3-5 8-10 11-10 2 0 4 5 4 10 0 6-5 10-11 10-5 0-7-4-4-10z"/><path d="m3749 133c-13-16-12-17 4-4s21 21 13 21c-2 0-10-8-17-17z"/><path d="m4710 146c0-2 8-10 18-17 15-13 16-12 3 4s-21 21-21 13z"/><path d="m6069 133c-13-16-12-17 4-4s21 21 13 21c-2 0-10-8-17-17z"/><path d="m4095 110c-3-5-1-10 4-10 6 0 11 5 11 10 0 6-2 10-4 10-3 0-8-4-11-10z"/><path d="m4615 110c-3-5-1-10 4-10 6 0 11 5 11 10 0 6-2 10-4 10-3 0-8-4-11-10z"/><path d="m5090 109c0-5 5-7 10-4 6 3 10 8 10 11 0 2-4 4-10 4-5 0-10-5-10-11z"/><path d="m5695 110c-3-5-1-10 4-10 6 0 11 5 11 10 0 6-2 10-4 10-3 0-8-4-11-10z"/><path d="m5870 106c0-2 8-10 18-17 15-13 16-12 3 4s-21 21-21 13z"/><path d="m3919 83c-13-16-12-17 4-4 9 7 17 15 17 17 0 8-8 3-21-13z"/><path d="m4240 90c-9-6-10-10-3-10 6 0 15 5 18 10 8 12 4 12-15 0z"/><path d="m5239 83c-13-16-12-17 4-4 9 7 17 15 17 17 0 8-8 3-21-13z"/><path d="m5959 83c-13-16-12-17 4-4 9 7 17 15 17 17 0 8-8 3-21-13z"/><path d="m4815 70c3-5 8-10 11-10 2 0 4 5 4 10 0 6-5 10-11 10-5 0-7-4-4-10z"/><path d="m6010 69c0-5 5-7 10-4 6 3 10 8 10 11 0 2-4 4-10 4-5 0-10-5-10-11z"/><path d="m6290 69c0-5 5-7 10-4 6 3 10 8 10 11 0 2-4 4-10 4-5 0-10-5-10-11z"/><path d="m4196 57c3-10 9-15 12-12s0 11-7 18c-10 9-11 8-5-6z"/><path d="m5115 59c-4-6-5-12-2-15 2-3 7 2 10 11 7 17 1 20-8 4z"/><path d="m4535 50c-3-5-1-10 4-10 6 0 11 5 11 10 0 6-2 10-4 10-3 0-8-4-11-10z"/><path d="m4574 46c1-8 5-18 8-22 4-3 5 1 4 10-1 8-5 18-8 22-4 3-5-1-4-10z"/><path d="m4879 43c-13-16-12-17 4-4s21 21 13 21c-2 0-10-8-17-17z"/><path d="m5755 51c-3-5-2-12 3-15s9 1 9 9c0 17-3 19-12 6z"/><path d="m5790 49c0-5 5-7 10-4 6 3 10 8 10 11 0 2-4 4-10 4-5 0-10-5-10-11z"/><path d="m5170 30c0-5 5-10 11-10 5 0 7 5 4 10-3 6-8 10-11 10-2 0-4-4-4-10z"/><path d="m5850 36c0-2 7-7 16-10 8-3 12-2 9 4-6 10-25 14-25 6z"/></g></svg>